STARTFONT 2.1
FONT -DEC-Present Bullets-Medium-R-Normal--14-140-75-75-P-172-DEC-FontSpecific
SIZE 14 75 75
FONTBOUNDINGBOX 19 13 0 -1

STARTPROPERTIES 10
COPYRIGHT "Copyright 1990,  Digital Equipment Corporation Created by Loree Nelson, The Artis Consultancy"
POINT_SIZE 140
WEIGHT 10
RESOLUTION_X 75
RESOLUTION_Y 75
X_HEIGHT 10
QUAD_WIDTH 12
DEFAULT_CHAR 0
FONT_DESCENT 2
FONT_ASCENT 12
ENDPROPERTIES

CHARS 59

STARTCHAR space
ENCODING 32
SWIDTH 250 0
DWIDTH 4 0
BBX 0 0 0 0
BITMAP
ENDCHAR

STARTCHAR A
ENCODING 65
SWIDTH 704 0
DWIDTH 10 0
BBX 8 9 0 2
BITMAP
03
06
04
FE
8E
AA
BA
92
FE
ENDCHAR

STARTCHAR B
ENCODING 66
SWIDTH 616 0
DWIDTH 9 0
BBX 8 11 0 0
BITMAP
02
06
07
0E
0C
0C
58
70
F0
70
30
ENDCHAR

STARTCHAR C
ENCODING 67
SWIDTH 740 0
DWIDTH 10 0
BBX 7 10 0 0
BITMAP
80
60
10
0C
02
02
0C
10
60
80
ENDCHAR

STARTCHAR D
ENCODING 68
SWIDTH 953 0
DWIDTH 13 0
BBX 12 12 1 0
BITMAP
0600
0600
0900
0900
F9F0
4020
2040
1080
1080
1680
39C0
2040
ENDCHAR

STARTCHAR E
ENCODING 69
SWIDTH 1048 0
DWIDTH 15 0
BBX 12 12 1 0
BITMAP
0600
0600
0600
0F00
FFF0
7FE0
3FC0
1F80
1F80
1FC0
30C0
2040
ENDCHAR

STARTCHAR F
ENCODING 70
SWIDTH 732 0
DWIDTH 10 0
BBX 9 10 1 1
BITMAP
0800
0C00
FE00
FF00
FF80
FF80
FF00
FE00
0C00
0800
ENDCHAR

STARTCHAR G
ENCODING 71
SWIDTH 732 0
DWIDTH 10 0
BBX 9 10 1 1
BITMAP
0800
0C00
FA00
8100
8080
8080
8100
FA00
0C00
0800
ENDCHAR

STARTCHAR H
ENCODING 72
SWIDTH 1000 0
DWIDTH 14 0
BBX 17 3 0 0
BITMAP
01FF80
000000
FFFF80
ENDCHAR

STARTCHAR I
ENCODING 73
SWIDTH 787 0
DWIDTH 11 0
BBX 8 11 0 0
BITMAP
E0
F8
1C
0E
07
03
03
03
03
03
03
ENDCHAR

STARTCHAR J
ENCODING 74
SWIDTH 756 0
DWIDTH 11 0
BBX 7 11 0 -1
BITMAP
C0
42
26
34
18
18
18
24
64
42
02
ENDCHAR

STARTCHAR K
ENCODING 75
SWIDTH 935 0
DWIDTH 13 0
BBX 9 11 1 1
BITMAP
C180
4100
6300
3600
1C00
1C00
1C00
3600
6300
4100
C180
ENDCHAR

STARTCHAR L
ENCODING 76
SWIDTH 1000 0
DWIDTH 14 0
BBX 12 10 1 0
BITMAP
6000
F800
D400
BB00
6480
1340
0CA0
0270
0150
00F0
ENDCHAR

STARTCHAR M
ENCODING 77
SWIDTH 1440 0
DWIDTH 20 0
BBX 19 9 0 -1
BITMAP
1FFF00
3FFF80
7FFFC0
EE1EE0
EC0EE0
DC0F60
3E1F80
7FFFC0
7FFFC0
ENDCHAR

STARTCHAR N
ENCODING 78
SWIDTH 1292 0
DWIDTH 18 0
BBX 15 9 0 0
BITMAP
3FFC
7FFE
FFFE
7FFE
1DB8
3FFC
381C
3FFC
1818
ENDCHAR

STARTCHAR O
ENCODING 79
SWIDTH 1488 0
DWIDTH 21 0
BBX 19 9 0 0
BITMAP
00FFE0
7F00E0
581F00
587800
6E3800
6D1800
E8C800
F83400
C00C00
ENDCHAR

STARTCHAR P
ENCODING 80
SWIDTH 1292 0
DWIDTH 18 0
BBX 15 7 0 1
BITMAP
0700
F8FE
D37E
DFF0
D1E0
FFE0
00C0
ENDCHAR

STARTCHAR Q
ENCODING 81
SWIDTH 844 0
DWIDTH 12 0
BBX 10 9 0 1
BITMAP
1000
1800
1800
CC00
7FC0
CC00
1800
1800
1000
ENDCHAR

STARTCHAR R
ENCODING 82
SWIDTH 1195 0
DWIDTH 17 0
BBX 10 9 3 0
BITMAP
3F00
4080
4080
7F80
BF40
FFC0
FFC0
4080
4080
ENDCHAR

STARTCHAR S
ENCODING 83
SWIDTH 1376 0
DWIDTH 19 0
BBX 19 9 0 0
BITMAP
FFFFE0
C00060
B001A0
880220
87FC20
880220
900120
A000A0
FFFFE0
ENDCHAR

STARTCHAR T
ENCODING 84
SWIDTH 1098 0
DWIDTH 15 0
BBX 12 12 0 0
BITMAP
1080
A050
5FE0
B8D0
3040
2240
2220
2220
3160
1040
1FC0
38F0
ENDCHAR

STARTCHAR U
ENCODING 85
SWIDTH 992 0
DWIDTH 14 0
BBX 11 13 1 -1
BITMAP
0400
4440
2080
0E00
1100
D160
1500
1500
1500
0E00
0000
0E00
0400
ENDCHAR

STARTCHAR V
ENCODING 86
SWIDTH 1175 0
DWIDTH 16 0
BBX 13 10 0 0
BITMAP
7F80
4080
4080
4080
4080
4080
3FE0
7F90
42D0
FFD8
ENDCHAR

STARTCHAR W
ENCODING 87
SWIDTH 790 0
DWIDTH 11 0
BBX 9 10 0 0
BITMAP
1C00
6300
E380
9C80
8480
8480
8480
8480
6700
1C00
ENDCHAR

STARTCHAR X
ENCODING 88
SWIDTH 860 0
DWIDTH 12 0
BBX 10 10 0 0
BITMAP
FFC0
FBC0
F9C0
00C0
0040
0040
00C0
F9C0
FBC0
FFC0
ENDCHAR

STARTCHAR Y
ENCODING 89
SWIDTH 804 0
DWIDTH 11 0
BBX 10 11 0 0
BITMAP
0800
0C00
0A00
F900
8280
FD40
8280
F900
0A00
0C00
0800
ENDCHAR

STARTCHAR Z
ENCODING 90
SWIDTH 1220 0
DWIDTH 17 0
BBX 14 10 1 0
BITMAP
8000
7800
2700
10F0
0FFC
0FF8
1F80
3E00
7000
8000
ENDCHAR

STARTCHAR bracketleft
ENCODING 91
SWIDTH 1260 0
DWIDTH 18 0
BBX 15 5 0 2
BITMAP
0040
0030
FFFE
0030
0040
ENDCHAR

STARTCHAR backslash
ENCODING 92
SWIDTH 915 0
DWIDTH 13 0
BBX 11 12 0 -1
BITMAP
0E00
2480
7FC0
EB60
36C0
DF60
F5E0
2E80
FBE0
6EC0
2480
0E00
ENDCHAR

STARTCHAR bracketright
ENCODING 93
SWIDTH 1292 0
DWIDTH 18 0
BBX 15 6 0 2
BITMAP
1FFE
BCC0
BB60
A6E0
BEC0
BF80
ENDCHAR

STARTCHAR asciicircum
ENCODING 94
SWIDTH 940 0
DWIDTH 13 0
BBX 8 1 3 4
BITMAP
FF
ENDCHAR

STARTCHAR underscore
ENCODING 95
SWIDTH 1164 0
DWIDTH 16 0
BBX 14 1 1 4
BITMAP
FFFC
ENDCHAR

STARTCHAR grave
ENCODING 96
SWIDTH 720 0
DWIDTH 10 0
BBX 8 7 0 2
BITMAP
3C
42
81
81
81
42
3C
ENDCHAR

STARTCHAR a
ENCODING 97
SWIDTH 720 0
DWIDTH 10 0
BBX 8 7 0 2
BITMAP
3C
7E
FF
FF
FF
7E
3C
ENDCHAR

STARTCHAR b
ENCODING 98
SWIDTH 1272 0
DWIDTH 18 0
BBX 16 6 1 2
BITMAP
001C
463E
EF7F
467F
003E
001C
ENDCHAR

STARTCHAR c
ENCODING 99
SWIDTH 556 0
DWIDTH 8 0
BBX 6 10 0 0
BITMAP
C0
F0
F8
F8
FC
FC
F8
F8
F0
C0
ENDCHAR

STARTCHAR d
ENCODING 100
SWIDTH 616 0
DWIDTH 9 0
BBX 6 12 1 0
BITMAP
80
60
10
08
0C
0C
0C
1C
38
F0
F0
C0
ENDCHAR

STARTCHAR e
ENCODING 101
SWIDTH 956 0
DWIDTH 13 0
BBX 10 10 1 0
BITMAP
0C00
0300
00C0
0040
0080
0300
0600
1C00
3800
F000
ENDCHAR

STARTCHAR f
ENCODING 102
SWIDTH 932 0
DWIDTH 13 0
BBX 11 10 1 0
BITMAP
0400
0E00
0E00
1B00
3900
3180
7080
60C0
E060
FFE0
ENDCHAR

STARTCHAR g
ENCODING 103
SWIDTH 956 0
DWIDTH 13 0
BBX 15 8 0 1
BITMAP
0100
0380
07C0
0FE0
1FF0
3FF8
7FFC
FFFE
ENDCHAR

STARTCHAR h
ENCODING 104
SWIDTH 620 0
DWIDTH 9 0
BBX 7 10 1 0
BITMAP
10
38
7C
FE
FE
FE
FE
7C
38
10
ENDCHAR

STARTCHAR i
ENCODING 105
SWIDTH 620 0
DWIDTH 9 0
BBX 7 10 1 0
BITMAP
10
38
64
C6
C2
C2
C6
64
38
10
ENDCHAR

STARTCHAR j
ENCODING 106
SWIDTH 1023 0
DWIDTH 14 0
BBX 13 8 1 2
BITMAP
0700
1FC0
3FE0
FFF8
FFF8
3FE0
1FC0
0700
ENDCHAR

STARTCHAR k
ENCODING 107
SWIDTH 930 0
DWIDTH 13 0
BBX 11 12 2 0
BITMAP
0400
0400
0400
0E00
0E00
3F80
FFE0
3F80
0E00
0E00
0400
0400
ENDCHAR

STARTCHAR l
ENCODING 108
SWIDTH 548 0
DWIDTH 8 0
BBX 6 10 0 0
BITMAP
C0
E0
F0
F8
FC
FC
F8
F0
E0
C0
ENDCHAR

STARTCHAR m
ENCODING 109
SWIDTH 896 0
DWIDTH 13 0
BBX 9 4 2 3
BITMAP
FF80
FE00
7800
6000
ENDCHAR

STARTCHAR n
ENCODING 110
SWIDTH 1000 0
DWIDTH 14 0
BBX 12 6 2 2
BITMAP
C000
3800
07C0
00F0
0700
0800
ENDCHAR

STARTCHAR o
ENCODING 111
SWIDTH 1000 0
DWIDTH 14 0
BBX 14 6 0 3
BITMAP
0080
00C0
00E0
FFF0
FFF8
FFFC
ENDCHAR

STARTCHAR p
ENCODING 112
SWIDTH 1096 0
DWIDTH 15 0
BBX 14 4 1 3
BITMAP
1FFC
3FF8
7FF0
FFE0
ENDCHAR

STARTCHAR q
ENCODING 113
SWIDTH 704 0
DWIDTH 10 0
BBX 9 12 1 0
BITMAP
0E80
0E80
0D00
1D00
1A00
3A00
3400
7400
7400
6800
E800
D000
ENDCHAR

STARTCHAR r
ENCODING 114
SWIDTH 1036 0
DWIDTH 15 0
BBX 14 12 1 0
BITMAP
000C
000C
001C
0018
0038
0038
0070
0070
00F0
00E0
3FE0
FFC0
ENDCHAR

STARTCHAR s
ENCODING 115
SWIDTH 1264 0
DWIDTH 18 0
BBX 15 12 2 0
BITMAP
0002
0002
0006
0006
000E
001E
001E
003E
00FE
01FE
07FE
FFFE
ENDCHAR

STARTCHAR t
ENCODING 116
SWIDTH 884 0
DWIDTH 12 0
BBX 9 8 0 1
BITMAP
FF00
8180
8180
8180
8180
8180
8180
7F80
ENDCHAR

STARTCHAR u
ENCODING 117
SWIDTH 844 0
DWIDTH 12 0
BBX 8 7 1 2
BITMAP
FF
FF
FF
FF
FF
FF
FF
ENDCHAR

STARTCHAR v
ENCODING 118
SWIDTH 1176 0
DWIDTH 16 0
BBX 14 6 0 2
BITMAP
FFFC
FFFC
FFFC
FFFC
FFFC
FFFC
ENDCHAR

STARTCHAR w
ENCODING 119
SWIDTH 1252 0
DWIDTH 18 0
BBX 14 6 1 2
BITMAP
FED4
FED4
FED4
FED4
FED4
FED4
ENDCHAR

STARTCHAR x
ENCODING 120
SWIDTH 1244 0
DWIDTH 17 0
BBX 16 10 0 0
BITMAP
0010
0018
ADFC
ADFE
ADFF
ADFF
ADFE
ADFC
0018
0010
ENDCHAR

STARTCHAR y
ENCODING 121
SWIDTH 864 0
DWIDTH 12 0
BBX 9 6 0 2
BITMAP
FE80
9E80
9E80
9E80
9E80
FE80
ENDCHAR

STARTCHAR z
ENCODING 122
SWIDTH 704 0
DWIDTH 10 0
BBX 7 6 0 2
BITMAP
FE
82
82
82
82
FE
ENDCHAR
ENDFONT
